<svg width="80" height="80" viewBox="0 0 80 80" fill="none" xmlns="http://www.w3.org/2000/svg">
<circle cx="40" cy="40" r="40" fill="white"/>
<g clip-path="url(#clip0_3773_161)">
<path fill-rule="evenodd" clip-rule="evenodd" d="M34.7172 16.9684C31.6379 18.5802 29.1186 19.9442 29.1191 19.9997C29.1205 20.1429 36.5095 23.9032 36.7718 23.8941C36.8911 23.8901 37.7566 23.4897 38.6949 23.0046L40.4013 22.1226L42.2649 23.0852L44.1284 24.048L47.1802 22.67C51.7787 20.5935 52.2563 20.366 52.1815 20.2896C52.0821 20.1881 50.4327 19.2977 45.9578 16.9304C43.7952 15.7862 41.6961 14.6644 41.2932 14.4374C40.8902 14.2104 40.5056 14.0278 40.4384 14.0313C40.3712 14.0348 37.7966 15.3565 34.7172 16.9684ZM21.2113 23.9962L18.0058 25.6601V32.9623C18.0058 36.9786 18.0479 40.2645 18.0995 40.2645C18.151 40.2645 19.7281 39.5775 21.6042 38.7379L25.0152 37.2112V29.5142L26.6821 30.4267C27.9665 31.1293 29.2517 31.8304 30.5378 32.5301L32.7265 33.721L33.7005 33.2784C34.3113 33.0004 34.9209 32.7197 35.5293 32.4363C35.9994 32.2163 37.1534 31.694 38.0936 31.2754C39.0339 30.8566 39.9043 30.4355 40.0277 30.3395C40.1917 30.2121 38.1925 29.1019 32.6333 26.2333C28.4429 24.0709 24.88 22.3086 24.7157 22.317C24.5514 22.3255 22.9744 23.081 21.2113 23.9962ZM52.7592 24.4635C50.576 25.4538 48.7882 26.3037 48.7862 26.3522C48.7843 26.4006 49.9742 27.1116 51.4306 27.9319C52.8869 28.7523 54.0784 29.4675 54.0784 29.5213C54.0784 29.5751 52.7898 30.2025 51.2149 30.9159C49.6398 31.6292 45.6587 33.4358 42.3677 34.9308L31.3407 39.9394C28.5669 41.1995 26.0666 42.3352 25.7845 42.4636C20.1188 45.0409 18.5616 45.756 18.3477 45.8788C18.1327 46.0024 18.0839 46.7204 18.0457 50.3242L18 54.6224L20.8665 56.0901L23.733 57.5577L27.7078 55.7551C29.894 54.7638 31.6826 53.9007 31.6826 53.8372C31.6826 53.7738 31.2786 53.5093 30.7851 53.2491C30.2913 52.989 29.2721 52.4132 28.5198 51.9692C27.7677 51.5252 27.0177 51.1179 26.853 51.0639C26.6884 51.01 26.5561 50.9157 26.5588 50.8543C26.5615 50.793 28.3118 49.9575 30.4481 48.9976C34.5975 47.1334 37.7729 45.6965 44.5901 42.5986C47.6386 41.2136 50.6874 39.8295 53.7365 38.4462C56.4163 37.2308 59.5321 35.8112 60.6604 35.2916L62.712 34.347L62.7576 29.9999L62.8034 25.6529L59.8961 24.1533C58.2969 23.3286 56.9301 22.6559 56.8584 22.6584C56.7868 22.6606 54.9422 23.4728 52.7592 24.4635ZM61.933 40.1464C61.5046 40.3566 60.6584 40.7504 60.0525 41.0212C59.4466 41.2921 58.2969 41.8134 57.4977 42.1798L56.0445 42.8459L56.0113 46.6623C55.993 48.7612 55.9161 50.4693 55.8404 50.4582C55.6684 50.4325 52.9448 49.0289 50.2071 47.5548C48.2311 46.4909 48.107 46.4486 47.6426 46.6797C47.3742 46.8134 45.7698 47.5364 44.0773 48.2868C42.3847 49.0371 40.9448 49.6999 40.8771 49.76C40.8095 49.8199 44.2159 51.6751 48.447 53.8829L56.1398 57.8971L59.426 56.1889C61.2332 55.2495 62.7699 54.3926 62.8407 54.2848C63 54.0425 62.9863 39.7308 62.8269 39.7501C62.7638 39.7577 62.3615 39.9361 61.933 40.1464ZM43.7354 56.9447C43.1654 57.191 42.5955 57.4376 42.0258 57.6846C40.3054 58.4325 40.6425 58.4573 38.5958 57.4334C37.2326 56.7515 36.6449 56.5411 36.3899 56.6433C36.1986 56.7198 34.552 57.4642 32.7306 58.2974C30.9094 59.1306 29.356 59.8122 29.2788 59.8122C28.5146 59.8122 29.785 60.5749 34.6871 63.0598L40.4362 65.9737L42.8551 64.7737C44.1855 64.1136 46.8689 62.7919 48.8183 61.8366C50.7676 60.881 52.3384 60.0745 52.309 60.044C52.2794 60.0137 50.6461 59.1709 48.6792 58.1711L45.1031 56.3535L43.7354 56.9447Z" fill="#05A3C9"/>
</g>
<defs>
<clipPath id="clip0_3773_161">
<rect width="45" height="52" fill="white" transform="translate(18 14)"/>
</clipPath>
</defs>
</svg>
